<svg width="1920" height="19" viewBox="0 0 1920 19" fill="none" xmlns="http://www.w3.org/2000/svg">
<path fill-rule="evenodd" clip-rule="evenodd" d="M1912.18 0.323076C1912.26 0.760716 1912.39 1.20735 1912.56 1.66299C1912.42 1.29524 1912.31 0.933133 1912.23 0.577109C1912.21 0.492022 1912.19 0.407493 1912.18 0.323076ZM1910.85 18.2837C1910.86 18.2683 1910.86 18.2528 1910.86 18.2371C1911.31 16.4669 1912.02 14.8876 1912.99 13.4991C1913.69 12.4964 1914.67 11.4795 1915.92 10.4484C1915.86 10.4968 1915.81 10.5449 1915.75 10.5932C1914.58 11.5747 1913.66 12.5434 1912.99 13.4991C1912.03 14.8667 1911.33 16.4192 1910.88 18.157C1910.88 18.172 1910.88 18.1869 1910.87 18.2018C1910.87 18.2135 1910.87 18.2254 1910.86 18.2371L1910.85 18.2837ZM1911.67 4.01497C1912.52 5.71558 1913.74 7.22332 1915.33 8.53889L1901.61 8.60566L0 8.67432V10.7307L1901.62 10.662L1915.35 10.5952C1914.28 11.5186 1913.42 12.4361 1912.79 13.3486C1911.79 14.7639 1911.07 16.3717 1910.62 18.1693L1910.61 18.2133L1910.54 18.4663L1912.49 19L1912.55 18.7402C1912.64 18.3692 1912.75 17.9826 1912.88 17.5804C1913.09 16.9268 1913.36 16.2852 1913.68 15.6555C1915.05 13.1189 1917.01 11.3479 1919.58 10.3324C1919.67 10.3093 1919.75 10.2859 1919.82 10.2619L1920 10.2035V8.90287L1919.82 8.84411C1919.17 8.62428 1918.49 8.30141 1917.78 7.8732C1915.36 6.35308 1913.7 4.25705 1912.8 1.57879L1912.8 1.56924C1912.63 1.12673 1912.51 0.695056 1912.43 0.274062L1912.38 0L1910.42 0.534096L1910.47 0.776602C1910.71 1.85068 1911.1 2.93023 1911.67 4.01497Z" fill="black"/>
</svg>
