<svg width="736" height="19" viewBox="0 0 736 19" fill="none" xmlns="http://www.w3.org/2000/svg">
<path fill-rule="evenodd" clip-rule="evenodd" d="M728.177 0.323076C728.26 0.760716 728.387 1.20735 728.56 1.66299C728.421 1.29524 728.311 0.933133 728.23 0.577109C728.211 0.492022 728.193 0.407493 728.177 0.323076ZM726.851 18.2837C726.855 18.2683 726.86 18.2528 726.864 18.2371C727.309 16.4669 728.018 14.8876 728.993 13.4991C729.693 12.4964 730.67 11.4795 731.923 10.4484C731.864 10.4968 731.806 10.5449 731.748 10.5932C730.578 11.5747 729.66 12.5434 728.993 13.4991C728.033 14.8667 727.33 16.4192 726.884 18.157C726.88 18.172 726.877 18.1869 726.873 18.2018C726.87 18.2135 726.867 18.2254 726.864 18.2371L726.851 18.2837ZM727.665 4.01497C728.522 5.71558 729.745 7.22332 731.328 8.53889L717.609 8.60566L0 8.67432V10.7307L717.619 10.662L731.349 10.5952C730.278 11.5186 729.422 12.4361 728.785 13.3486C727.792 14.7639 727.07 16.3717 726.618 18.1693L726.606 18.2133L726.536 18.4663L728.492 19L728.552 18.7402C728.639 18.3692 728.747 17.9826 728.876 17.5804C729.095 16.9268 729.363 16.2852 729.681 15.6555C731.047 13.1189 733.013 11.3479 735.585 10.3324C735.672 10.3093 735.752 10.2859 735.824 10.2619L736 10.2035V8.90287L735.825 8.84411C735.17 8.62428 734.489 8.30141 733.78 7.8732C731.357 6.35308 729.7 4.25705 728.801 1.57879L728.798 1.56924C728.63 1.12673 728.507 0.695056 728.428 0.274062L728.376 0L726.419 0.534096L726.471 0.776602C726.705 1.85068 727.104 2.93023 727.665 4.01497Z" fill="black"/>
</svg>
