<svg width="26" height="13" viewBox="0 0 26 13" fill="none" xmlns="http://www.w3.org/2000/svg">
<path fill-rule="evenodd" clip-rule="evenodd" d="M19.7703 0.49308L20.7485 0.221052C20.8037 0.52049 20.8894 0.826084 21.0055 1.13784C21.6222 3.01072 22.7607 4.47777 24.421 5.539C24.906 5.83778 25.3754 6.06478 25.829 6.21999L25.8289 6.21984C25.3753 6.06463 24.906 5.83763 24.421 5.53884C22.7607 4.47762 21.6222 3.01057 21.0055 1.13768C20.9118 0.886066 20.8379 0.63846 20.7838 0.394864C20.7709 0.336647 20.7591 0.278659 20.7485 0.220899L19.7703 0.492934C19.7703 0.492982 19.7703 0.493031 19.7703 0.49308ZM19.8581 12.5099C19.8609 12.4994 19.8638 12.4888 19.8668 12.478C20.1653 11.2668 20.6417 10.1862 21.2961 9.23625C21.7659 8.55017 22.4215 7.85439 23.2629 7.14893L23.3639 7.06954L23.3637 7.06954L23.2629 7.14878C23.2234 7.18188 23.1843 7.21495 23.1457 7.248C22.3604 7.9195 21.7439 8.5822 21.2961 9.2361C20.6516 10.1718 20.1797 11.2342 19.8804 12.4232C19.8778 12.4334 19.8753 12.4437 19.8727 12.4539C19.8707 12.4619 19.8688 12.4699 19.8668 12.4779L19.8581 12.5099ZM0.171063 7.16394V6.11216L13.6548 6.06577L23.359 6.01763L23.3588 6.01748L13.6548 6.06562L0.171053 6.11201L0.171063 7.16394ZM20.4046 2.74709C20.98 3.91066 21.8006 4.94227 22.8633 5.8424L13.654 5.88809L0 5.93506V7.34206L13.6605 7.29506L22.8773 7.24934C22.1588 7.88117 21.5842 8.50894 21.1567 9.13325C20.4897 10.1016 20.005 11.2017 19.7016 12.4316L19.6934 12.4618L19.6464 12.6348L20.9594 13L21.0001 12.8222C21.0582 12.5684 21.1306 12.3039 21.2176 12.0287C21.3644 11.5815 21.5444 11.1425 21.7577 10.7116C22.6749 8.97608 23.9948 7.76437 25.7211 7.06952C25.78 7.05374 25.8338 7.0377 25.8821 7.02131L26 6.98131V6.09143L25.8825 6.05123C25.4429 5.90082 24.9853 5.67992 24.5095 5.38692C22.8828 4.34684 21.7709 2.91272 21.1674 1.08022L21.165 1.07369C21.0523 0.77092 20.9696 0.475565 20.9165 0.187516L20.8819 0L19.5679 0.365434L19.6033 0.531359C19.7603 1.26625 20.0279 2.00489 20.4046 2.74709Z" fill="white"/>
</svg>
