<svg width="12" height="24" viewBox="0 0 12 24" fill="none" xmlns="http://www.w3.org/2000/svg">
<path fill-rule="evenodd" clip-rule="evenodd" d="M11.5448 5.75046L11.796 4.84754C11.5195 4.79655 11.2375 4.71749 10.9497 4.61034C9.22088 4.04105 7.86667 2.99011 6.88708 1.45752C6.61128 1.0098 6.40174 0.576588 6.25847 0.157887L6.25861 0.157894C6.40188 0.576599 6.61142 1.00981 6.88722 1.45753C7.86681 2.99012 9.22102 4.04106 10.9498 4.61035C11.1821 4.69683 11.4107 4.76501 11.6355 4.81491C11.6892 4.82684 11.7428 4.83771 11.7961 4.84755L11.545 5.75049C11.5449 5.75048 11.5449 5.75047 11.5448 5.75046ZM0.452389 5.66947C0.462101 5.66684 0.471914 5.66415 0.481825 5.66142C1.59986 5.3859 2.59732 4.9461 3.47423 4.34203C4.10754 3.90835 4.74979 3.3032 5.40098 2.52657L5.47427 2.43335L5.47427 2.43354L5.40112 2.52658C5.37057 2.56301 5.34004 2.59907 5.30953 2.63475C4.68969 3.35961 4.07797 3.92871 3.47437 4.34204C2.61067 4.93701 1.63001 5.37262 0.532391 5.64887C0.522973 5.65124 0.513548 5.65359 0.504115 5.65594C0.496737 5.65778 0.489354 5.6596 0.481966 5.66143L0.452389 5.66947ZM5.38714 23.8421L6.358 23.8421L6.40083 11.3956L6.44526 2.43783L6.4454 2.43801L6.40097 11.3956L6.35815 23.8421L5.38714 23.8421ZM9.46423 5.16496C8.39016 4.63388 7.4379 3.87635 6.60701 2.89544L6.56484 11.3963L6.52148 24L5.22271 24L5.2661 11.3903L5.30831 2.88245C4.72508 3.54575 4.14559 4.07611 3.56931 4.47074C2.67541 5.08645 1.65995 5.53387 0.524674 5.81388L0.496835 5.8215L0.337067 5.86486L1.07982e-07 4.65283L0.164093 4.61529C0.398425 4.56169 0.642585 4.49483 0.896616 4.41456C1.30937 4.27899 1.7146 4.11283 2.11235 3.91599C3.71438 3.06928 4.83289 1.85095 5.47429 0.257401C5.48885 0.203053 5.50366 0.153443 5.51879 0.108845L5.55571 2.81689e-07L6.37714 2.45783e-07L6.41425 0.108456C6.55309 0.514204 6.757 0.936629 7.02745 1.37582C7.98753 2.87737 9.31133 3.9038 11.0029 4.46082L11.0089 4.46307C11.2884 4.56713 11.561 4.64342 11.8269 4.69247L12 4.7244L11.6627 5.93736L11.5095 5.90465C10.8312 5.75975 10.1493 5.5127 9.46423 5.16496Z" fill="#2403A6"/>
</svg>
