<svg width="48" height="23" viewBox="0 0 48 23" fill="none" xmlns="http://www.w3.org/2000/svg">
<path fill-rule="evenodd" clip-rule="evenodd" d="M11.5009 0.872373L9.69508 0.391092C9.59311 0.920866 9.43497 1.46153 9.22068 2.0131C8.0821 5.32665 5.98022 7.92221 2.91505 9.79976C2.0196 10.3284 1.15318 10.73 0.315773 11.0046L0.315788 11.0043C1.1532 10.7297 2.01962 10.3281 2.91507 9.79949C5.98024 7.92194 8.08211 5.32639 9.2207 2.01283C9.39365 1.56766 9.53003 1.12958 9.62982 0.698606C9.65367 0.595606 9.67543 0.493011 9.6951 0.390822L11.501 0.872113C11.501 0.8722 11.5009 0.872286 11.5009 0.872373ZM11.3389 22.1329C11.3337 22.1143 11.3283 22.0955 11.3228 22.0765C10.7718 19.9336 9.8922 18.0218 8.68406 16.3411C7.81671 15.1272 6.6064 13.8962 5.05314 12.6481L4.86671 12.5076L4.86708 12.5076L5.05316 12.6478C5.12603 12.7064 5.19815 12.7649 5.2695 12.8234C6.71923 14.0114 7.85741 15.1839 8.68407 16.3408C9.87403 17.9962 10.7452 19.8758 11.2977 21.9796C11.3025 21.9976 11.3072 22.0157 11.3119 22.0338C11.3156 22.0479 11.3192 22.0621 11.3228 22.0762L11.3389 22.1329ZM47.6842 12.6747V10.8138L22.7911 10.7317L4.87566 10.6466L4.87602 10.6463L22.7911 10.7315L47.6842 10.8136L47.6842 12.6747ZM10.3299 4.86023C9.26777 6.91885 7.75271 8.74402 5.79087 10.3366L22.7926 10.4174L48 10.5005V12.9898L22.7807 12.9066L5.7649 12.8257C7.09151 13.9436 8.15222 15.0543 8.94147 16.1588C10.1729 17.8721 11.0677 19.8184 11.6278 21.9944L11.643 22.0477L11.7297 22.354L9.30565 23L9.23059 22.6855C9.12339 22.2364 8.98965 21.7684 8.82913 21.2815C8.55797 20.4904 8.22566 19.7137 7.83197 18.9513C6.13856 15.8808 3.7019 13.737 0.514801 12.5076C0.406105 12.4797 0.306885 12.4513 0.21769 12.4223L0 12.3516V10.7772L0.216911 10.706C1.02841 10.4399 1.87326 10.0491 2.75164 9.53071C5.75474 7.69056 7.80761 5.15328 8.92165 1.91116L8.92614 1.89961C9.13426 1.36393 9.28685 0.841383 9.38494 0.331759L9.4488 0L11.8747 0.646537L11.8093 0.940098C11.5195 2.24029 11.0254 3.54711 10.3299 4.86023Z" fill="black"/>
</svg>
