<svg width="48" height="23" viewBox="0 0 48 23" fill="none" xmlns="http://www.w3.org/2000/svg">
<path fill-rule="evenodd" clip-rule="evenodd" d="M36.4991 0.872373L38.3049 0.391092C38.4069 0.920866 38.565 1.46153 38.7793 2.0131C39.9179 5.32665 42.0198 7.92221 45.085 9.79976C45.9804 10.3284 46.8468 10.73 47.6842 11.0046L47.6842 11.0043C46.8468 10.7297 45.9804 10.3281 45.0849 9.79949C42.0198 7.92194 39.9179 5.32639 38.7793 2.01283C38.6063 1.56766 38.47 1.12958 38.3702 0.698606C38.3463 0.595606 38.3246 0.493011 38.3049 0.390822L36.499 0.872113C36.499 0.8722 36.4991 0.872286 36.4991 0.872373ZM36.6611 22.1329C36.6663 22.1143 36.6717 22.0955 36.6772 22.0765C37.2282 19.9336 38.1078 18.0218 39.3159 16.3411C40.1833 15.1272 41.3936 13.8962 42.9469 12.6481L43.1333 12.5076L43.1329 12.5076L42.9468 12.6478C42.874 12.7064 42.8019 12.7649 42.7305 12.8234C41.2808 14.0114 40.1426 15.1839 39.3159 16.3408C38.126 17.9962 37.2548 19.8758 36.7023 21.9796C36.6975 21.9976 36.6928 22.0157 36.6881 22.0338C36.6844 22.0479 36.6808 22.0621 36.6772 22.0762L36.6611 22.1329ZM0.315809 12.6747V10.8138L25.2089 10.7317L43.1243 10.6466L43.124 10.6463L25.2089 10.7315L0.315789 10.8136L0.315809 12.6747ZM37.6701 4.86023C38.7322 6.91885 40.2473 8.74402 42.2091 10.3366L25.2074 10.4174L0 10.5005V12.9898L25.2193 12.9066L42.2351 12.8257C40.9085 13.9436 39.8478 15.0543 39.0585 16.1588C37.8271 17.8721 36.9323 19.8184 36.3722 21.9944L36.357 22.0477L36.2703 22.354L38.6943 23L38.7694 22.6855C38.8766 22.2364 39.0103 21.7684 39.1709 21.2815C39.442 20.4904 39.7743 19.7137 40.168 18.9513C41.8614 15.8808 44.2981 13.737 47.4852 12.5076C47.5939 12.4797 47.6931 12.4513 47.7823 12.4223L48 12.3516V10.7772L47.7831 10.706C46.9716 10.4399 46.1267 10.0491 45.2484 9.53071C42.2453 7.69056 40.1924 5.15328 39.0784 1.91116L39.0739 1.89961C38.8657 1.36393 38.7132 0.841383 38.6151 0.331759L38.5512 0L36.1253 0.646537L36.1907 0.940098C36.4805 2.24029 36.9746 3.54711 37.6701 4.86023Z" fill="black"/>
</svg>
