<svg width="32" height="201" viewBox="0 0 32 201" fill="none" xmlns="http://www.w3.org/2000/svg">
<path fill-rule="evenodd" clip-rule="evenodd" d="M31.4559 187.85C30.7188 187.988 29.9666 188.203 29.1992 188.493C29.8185 188.259 30.4284 188.074 31.028 187.938C31.1713 187.906 31.3137 187.877 31.4559 187.85ZM1.20636 185.62C1.23226 185.627 1.25843 185.635 1.28486 185.642C4.26628 186.389 6.92619 187.583 9.26461 189.221C10.9534 190.398 12.6661 192.039 14.4026 194.146C14.3212 194.047 14.2401 193.949 14.1588 193.853C12.5058 191.886 10.8742 190.343 9.26461 189.221C6.9614 187.607 4.34669 186.426 1.4197 185.676C1.39459 185.67 1.36946 185.663 1.3443 185.657C1.32463 185.652 1.30456 185.647 1.28486 185.642L1.20636 185.62ZM25.2379 186.989C22.3738 188.43 19.8344 190.484 17.6187 193.145L17.5062 170.085L17.3906 1.74215e-07L13.9272 2.15516e-07L14.0429 170.101L14.1555 193.181C12.6002 191.381 11.0549 189.943 9.51815 188.872C7.13442 187.202 4.42654 185.988 1.39912 185.229L1.32489 185.208L0.89884 185.09L-1.56831e-06 188.378L0.437575 188.48C1.06246 188.625 1.71356 188.807 2.39097 189.024C3.49164 189.392 4.57226 189.843 5.63292 190.377C9.90502 192.674 12.8877 195.979 14.5981 200.302C14.6369 200.449 14.6764 200.584 14.7168 200.705L14.8152 201L17.0057 201L17.1047 200.706C17.4749 199.605 18.0187 198.459 18.7399 197.268C21.3001 193.194 24.8302 190.41 29.341 188.899L29.3571 188.893C30.1024 188.611 30.8294 188.404 31.5384 188.271L32 188.184L31.1005 184.894L30.692 184.982C28.8831 185.375 27.0649 186.046 25.2379 186.989Z" fill="#F3F2F1"/>
</svg>
