<svg width="38" height="19" viewBox="0 0 38 19" fill="none" xmlns="http://www.w3.org/2000/svg">
<path fill-rule="evenodd" clip-rule="evenodd" d="M28.8951 0.720656L30.3247 0.323076C30.4055 0.760716 30.5306 1.20735 30.7003 1.66299C31.6017 4.40028 33.2657 6.54444 35.6923 8.09546C36.4011 8.53214 37.0871 8.86391 37.75 9.09076L37.75 9.09053C37.087 8.86369 36.4011 8.53192 35.6922 8.09523C33.2656 6.54421 31.6017 4.40006 30.7003 1.66277C30.5634 1.29502 30.4554 0.933133 30.3764 0.577109C30.3575 0.492022 30.3403 0.40727 30.3247 0.322853L28.8951 0.720441C28.8951 0.720513 28.8951 0.720584 28.8951 0.720656ZM29.0233 18.2837C29.0275 18.2683 29.0318 18.2528 29.0361 18.2371C29.4723 16.4669 30.1687 14.8876 31.1251 13.4991C31.8118 12.4964 32.7699 11.4795 33.9996 10.4484L34.1472 10.3324L34.1469 10.3324L33.9996 10.4482C33.9419 10.4966 33.8848 10.5449 33.8283 10.5932C32.6806 11.5747 31.7795 12.5432 31.1251 13.4989C30.1831 14.8664 29.4933 16.4192 29.056 18.157C29.0522 18.172 29.0485 18.1869 29.0448 18.2018C29.0419 18.2135 29.039 18.2252 29.0361 18.2369L29.0233 18.2837ZM0.250015 10.4704V8.93316L19.957 8.86536L34.1401 8.795L34.1398 8.79478L19.957 8.86514L0.25 8.93294L0.250015 10.4704ZM29.8221 4.01497C30.663 5.71558 31.8624 7.22332 33.4156 8.53889L19.9558 8.60566L0 8.67432V10.7307L19.9653 10.662L33.4361 10.5952C32.3859 11.5186 31.5462 12.4361 30.9213 13.3486C29.9465 14.7639 29.238 16.3717 28.7947 18.1693L28.7826 18.2133L28.714 18.4663L30.633 19L30.6925 18.7402C30.7773 18.3692 30.8832 17.9826 31.0103 17.5804C31.2249 16.9268 31.488 16.2852 31.7997 15.6555C33.1403 13.1189 35.0693 11.3479 37.5924 10.3324C37.6785 10.3093 37.757 10.2859 37.8277 10.2619L38 10.2035V8.90287L37.8283 8.84411C37.1858 8.62428 36.517 8.30141 35.8216 7.8732C33.4442 6.35308 31.819 4.25705 30.937 1.57879L30.9335 1.56924C30.7687 1.12673 30.6479 0.695056 30.5703 0.274062L30.5197 0L28.5992 0.534096L28.651 0.776602C28.8804 1.85068 29.2716 2.93023 29.8221 4.01497Z" fill="white"/>
</svg>
