<svg width="1440" height="1294" viewBox="0 0 1440 1294" fill="none" xmlns="http://www.w3.org/2000/svg">
<path fill-rule="evenodd" clip-rule="evenodd" d="M1076.24 125.427L1101.71 99.9585C1108.54 107.86 1116.42 115.404 1125.33 122.589C1176.41 167.188 1236.61 190.466 1305.94 192.424C1326 192.662 1344.34 191.05 1360.98 187.588L1360.97 187.584C1344.34 191.046 1326 192.658 1305.94 192.419C1236.61 190.462 1176.41 167.184 1125.33 122.585C1118.13 116.786 1111.61 110.753 1105.78 104.487C1104.38 102.989 1103.03 101.478 1101.71 99.9542L1076.23 125.423L1076.24 125.427ZM1284.79 480.403C1284.7 480.04 1284.6 479.673 1284.51 479.302C1272.96 438.057 1269.12 397.523 1273.01 357.698C1275.73 328.986 1284.01 296.683 1297.84 260.788L1299.59 256.636L1299.58 256.64L1297.84 260.784C1297.19 262.468 1296.55 264.144 1295.93 265.812C1283.24 299.701 1275.6 330.328 1273.01 357.693C1269.18 396.918 1272.84 436.832 1283.99 477.435C1284.09 477.783 1284.18 478.131 1284.28 478.48C1284.35 478.752 1284.43 479.025 1284.51 479.297L1284.79 480.403ZM-184.013 1116.93L-202.03 1085.72L983.308 399.534L1281.42 225.513L1281.41 225.512L983.305 399.53L-202.033 1085.72L-184.013 1116.93ZM1134.39 181.021C1172.04 205.312 1215 221.324 1263.15 229.131L980.238 394.277L-210.333 1083.51L-186.231 1125.26L1004.54 435.906L1287.68 270.624C1276.37 302.15 1269.43 330.995 1266.95 357.122C1262.99 397.717 1266.9 438.977 1278.63 480.862L1278.89 481.904L1280.41 487.875L1327.11 475.356L1325.32 469.358C1322.76 460.794 1320.46 451.657 1318.42 441.946C1315.29 426.067 1313.31 409.84 1312.5 393.263C1311.03 325.456 1330.93 266.03 1372.21 214.711C1373.75 213.196 1375.13 211.764 1376.34 210.418L1379.29 207.134L1364.04 180.732L1359.73 181.628C1343.62 184.984 1325.74 186.568 1306.06 186.338C1238.13 184.41 1179.31 161.636 1129.33 117.999L1129.15 117.848C1120.49 110.87 1112.88 103.577 1106.31 95.9758L1102.03 91.0273L1067.81 125.24L1071.75 129.533C1089.17 148.545 1110.07 165.701 1134.39 181.021Z" fill="url(#paint0_linear)"/>
<defs>
<linearGradient id="paint0_linear" x1="1261.97" y1="201.592" x2="1061.66" y2="396.599" gradientUnits="userSpaceOnUse">
<stop stop-color="white" stop-opacity="0.48"/>
<stop offset="1" stop-color="#E8E8E8" stop-opacity="0.45"/>
</linearGradient>
</defs>
</svg>
