<svg width="150" height="150" viewBox="0 0 150 150" fill="none" xmlns="http://www.w3.org/2000/svg">
<g clip-path="url(#clip0)">
<path d="M60.2439 11.3122L63.6536 10.7307C66.1668 10.3021 67.6265 9.37268 67.2706 7.28609C66.9547 5.43462 65.5952 5.00112 64.0029 5.24243L63.9427 4.88976C65.003 4.63332 65.8971 3.84572 65.6414 2.34691C65.293 0.304407 63.7528 0.0529407 61.2249 0.484051L58.4766 0.952759L60.2439 11.3122ZM60.4413 5.19959L59.8572 1.77583L61.4445 1.50513C63.1346 1.21689 64.1956 1.14179 64.4689 2.74346C64.7196 4.21289 63.7187 4.64065 62.0286 4.92889L60.4413 5.19959ZM61.2736 10.0781L60.6168 6.22819L62.8654 5.8447C64.629 5.54393 65.7721 5.77239 66.0303 7.2859C66.3086 8.91697 65.2859 9.39382 63.5222 9.6946L61.2736 10.0781Z" fill="#2403A6"/>
<path d="M69.2712 6.16325C69.3259 8.324 70.9189 9.98356 73.2887 9.92359C75.6436 9.86399 77.1358 8.12634 77.0811 5.96559C77.0268 3.81975 75.4486 2.1598 73.0937 2.2194C70.7239 2.27937 69.2168 4.0174 69.2712 6.16325ZM70.4933 6.13232C70.4545 4.59744 71.3614 3.30703 73.1201 3.26252C74.8639 3.21839 75.835 4.46127 75.8738 5.99615C75.9131 7.54593 75.0061 8.83634 73.2623 8.88047C71.5036 8.92498 70.5326 7.6821 70.4933 6.13232Z" fill="#2403A6"/>
<path d="M79.2549 6.06995C79.0008 8.21641 80.3409 10.0862 82.695 10.3648C85.0343 10.6416 86.7591 9.13449 87.0132 6.98803C87.2655 4.85638 85.9403 2.98835 83.601 2.71153C81.2468 2.43295 79.5073 3.93829 79.2549 6.06995ZM80.469 6.21362C80.6495 4.68889 81.7312 3.541 83.4783 3.74775C85.2106 3.95274 85.9944 5.32139 85.8139 6.84612C85.6317 8.38565 84.5499 9.53354 82.8177 9.32854C81.0706 9.1218 80.2867 7.75315 80.469 6.21362Z" fill="#2403A6"/>
<path d="M93.6354 12.4327L94.9765 12.7845L93.2178 8.20844L95.2307 7.70388C95.6912 7.59351 95.9983 7.30421 96.0799 6.81705L96.3088 5.4747L95.1263 5.16452L94.896 6.62978L90.7253 7.66254L92.5224 0.813717L91.3398 0.50354L88.5591 11.1012L89.7416 11.4114L90.3999 8.90254L92.1154 8.47407L93.6354 12.4327Z" fill="#2403A6"/>
<path d="M101.632 6.13596C102.188 6.35168 102.794 6.10736 103.01 5.55149C103.215 5.02341 102.937 4.42004 102.381 4.20432C101.812 3.9832 101.214 4.24682 101.009 4.7749C100.793 5.33077 101.062 5.91485 101.632 6.13596ZM96.2175 13.2453L101.18 15.1705L101.557 14.1978L99.6113 13.4428L101.645 8.20368C101.85 7.67561 101.74 7.21722 101.065 7.01934L99.4126 6.53811L99.035 7.51088L100.515 7.94129L98.541 13.0275L96.5951 12.2725L96.2175 13.2453Z" fill="#2403A6"/>
<path d="M109.242 11.9482C110.359 12.5471 110.616 13.3615 109.883 14.7276L107.818 18.5764L108.882 19.1472L111.025 15.1539C111.997 13.3411 111.496 11.9729 110.025 11.1837C108.606 10.4227 107.334 10.8063 106.437 11.8476L106.135 11.6856L106.707 11.0284L107.314 9.89874L106.236 9.32093L102.733 15.8495L103.811 16.4273L105.361 13.5374C106.306 11.7772 107.863 11.2083 109.242 11.9482Z" fill="#2403A6"/>
<path d="M121.204 18.9108C120.668 18.5151 120.397 18.4076 119.487 18.3438C119.216 17.5369 118.609 16.8127 117.893 16.285C116.187 15.0274 114.289 14.8056 113.083 16.4393C111.729 18.2758 112.941 20.1272 115.21 21.0454L115.008 21.3197C113.878 20.9287 112.734 20.5082 111.586 20.067L111.288 20.8962C113.08 21.5367 116.158 22.8308 115.191 24.1426C114.505 25.0727 113.226 24.2591 109.827 21.7526L109.211 22.5874C113.183 25.516 114.955 26.5094 116.116 24.9353C117.084 23.6235 115.888 22.4477 114.338 21.6541C116.611 22.3174 118.202 22.2572 119.143 20.9812C119.521 20.4684 119.683 19.9248 119.661 19.43C120.011 19.4302 120.279 19.5169 120.612 19.7632L121.113 20.1326L121.729 19.2978L121.204 18.9108ZM114.941 20.3126C113.7 19.398 113.191 18.3411 114.044 17.1843C114.888 16.0395 116.049 16.2139 117.289 17.1286C118.542 18.0521 119.027 19.0913 118.183 20.2362C117.329 21.3929 116.193 21.2361 114.941 20.3126Z" fill="#2403A6"/>
<path d="M123.647 28.3988C123.059 28.9041 122.188 30.0858 123.587 31.7134C124.754 33.0697 126.072 32.9787 127.115 32.4549L127.349 32.7262L126.634 33.0846L126.329 33.347C125.911 33.7066 125.878 34.148 126.247 34.5775L127.102 35.5722L127.894 34.8919L127.184 34.0668L129.581 32.0064C131.084 30.7139 131.318 28.8816 129.967 27.3105C128.596 25.7168 126.798 25.7293 125.633 26.7303L126.411 27.6346C127.474 26.721 128.487 27.1673 129.187 27.9811C130.022 28.9532 129.99 29.9443 129.01 30.8852L126.87 28.8319C125.607 27.6374 124.54 27.631 123.647 28.3988ZM124.557 29.2284C125.111 28.7522 125.637 28.9292 126.317 29.583L128.32 31.4781C127.156 32.4791 125.574 32.4233 124.476 31.1461C123.912 30.4905 123.913 29.7824 124.557 29.2284Z" fill="#2403A6"/>
<path d="M138.196 38.9848C137.832 38.4209 137.616 38.2232 136.783 37.838C136.817 36.9826 136.504 36.0846 136.02 35.3327C134.865 33.5407 133.159 32.6539 131.442 33.7598C129.512 35.003 129.99 37.1772 131.796 38.8512L131.508 39.0369C130.585 38.2658 129.659 37.4615 128.737 36.6365L128.16 37.3097C129.617 38.5524 132.05 40.8689 130.671 41.7569C129.693 42.3866 128.782 41.1649 126.481 37.5935L125.603 38.1586C128.292 42.3315 129.603 43.8985 131.258 42.8329C132.636 41.9449 131.933 40.4122 130.758 39.112C132.658 40.5477 134.176 41.0594 135.517 40.1956C136.056 39.8485 136.403 39.395 136.559 38.9219C136.888 39.047 137.108 39.2241 137.334 39.575L137.674 40.1013L138.551 39.5362L138.196 38.9848ZM131.804 38.0658C130.964 36.7625 130.863 35.5866 132.079 34.8036C133.282 34.0286 134.311 34.6071 135.151 35.9103C135.998 37.2261 136.084 38.3769 134.88 39.1519C133.665 39.935 132.652 39.3815 131.804 38.0658Z" fill="#2403A6"/>
<path d="M136.229 42.9181C134.291 43.8064 133.104 45.5806 134.21 47.9926C135.192 50.1335 137.014 50.2818 138.176 50.0609L137.667 48.9498C136.525 49.178 135.641 48.6812 135.131 47.5701C134.367 45.9034 135.185 44.7905 136.428 44.1388L138.87 49.464L139.304 49.2652C141.377 48.3147 142.012 46.5152 141.142 44.6182C140.266 42.7076 138.398 41.9241 136.229 42.9181ZM137.268 43.7536C138.353 43.2566 139.598 43.7189 140.207 45.0468C140.822 46.3883 140.297 47.4978 139.213 47.9948L137.268 43.7536Z" fill="#2403A6"/>
<path d="M143.839 54.7956C144.203 56.0092 143.808 56.766 142.323 57.2115L138.139 58.4665L138.486 59.623L142.827 58.3208C144.798 57.7297 145.413 56.409 144.933 54.8099C144.47 53.2679 143.301 52.6383 141.93 52.7382L141.831 52.4098L142.701 52.3513L143.929 51.9829L143.578 50.8121L136.481 52.941L136.832 54.1118L139.974 53.1694C141.887 52.5954 143.389 53.2965 143.839 54.7956Z" fill="#2403A6"/>
<path d="M142.575 60.9122C140.452 61.2366 138.967 62.866 139.33 65.2384C139.546 66.6529 140.619 68.3438 142.77 68.211L142.583 66.988C141.152 66.9957 140.523 66.1416 140.361 65.0807C140.095 63.3419 141.241 62.3525 142.759 62.1205C144.263 61.8908 145.652 62.4928 145.917 64.2316C146.08 65.2926 145.735 66.2952 144.367 66.7155L144.554 67.9385C146.647 67.4226 147.165 65.4886 146.949 64.074C146.586 61.7016 144.682 60.5902 142.575 60.9122Z" fill="#2403A6"/>
<path d="M147.687 75.6097L141.847 73.4573L141.28 73.4743L141.27 73.1166L141.836 73.0996L147.536 70.6011L147.496 69.2595L140.258 72.7143L138.349 72.7715L138.404 70.0992L137.36 70.1305L137.312 72.9966C137.303 73.6981 137.656 74.0157 138.222 73.9987L140.295 73.9366L147.726 76.9364L147.687 75.6097Z" fill="#2403A6"/>
<path d="M138.796 89.0075L137.864 92.3379C137.177 94.7926 137.393 96.5094 139.432 97.0797C141.241 97.5857 142.214 96.5422 142.677 94.9999L143.021 95.0963C142.8 96.1643 143.13 97.3091 144.594 97.7188C146.59 98.277 147.476 96.9924 148.167 94.5233L148.918 91.8389L138.796 89.0075ZM144.238 91.7991L147.584 92.7349L147.15 94.2852C146.688 95.9361 146.302 96.9272 144.737 96.4894C143.301 96.0878 143.342 95.0003 143.804 93.3495L144.238 91.7991ZM139.471 90.4657L143.233 91.518L142.619 93.7143C142.136 95.437 141.441 96.3724 139.962 95.9588C138.369 95.513 138.375 94.3847 138.857 92.6621L139.471 90.4657Z" fill="#2403A6"/>
<path d="M139.573 99.4061C137.598 98.5276 135.415 99.2535 134.452 101.419C133.494 103.571 134.423 105.664 136.398 106.543C138.36 107.415 140.537 106.703 141.494 104.551C142.458 102.386 141.535 100.278 139.573 99.4061ZM139.076 100.523C140.48 101.147 141.256 102.52 140.541 104.127C139.832 105.721 138.292 106.064 136.889 105.44C135.472 104.81 134.696 103.437 135.405 101.843C136.12 100.236 137.66 99.8929 139.076 100.523Z" fill="#2403A6"/>
<path d="M135.402 108.461C133.565 107.316 131.298 107.733 130.042 109.747C128.793 111.749 129.424 113.955 131.262 115.101C133.087 116.238 135.345 115.834 136.594 113.832C137.85 111.817 137.227 109.599 135.402 108.461ZM134.754 109.5C136.06 110.314 136.639 111.784 135.707 113.279C134.782 114.761 133.207 114.888 131.902 114.074C130.584 113.253 130.004 111.783 130.929 110.3C131.861 108.805 133.436 108.679 134.754 109.5Z" fill="#2403A6"/>
<path d="M123.37 118.714L122.469 119.768L127.355 120.179L126.932 122.211C126.83 122.673 126.957 123.076 127.36 123.362L128.468 124.153L129.263 123.224L128.044 122.378L128.933 118.174L134.315 122.777L135.109 121.848L126.781 114.726L125.986 115.655L127.958 117.341L127.596 119.072L123.37 118.714Z" fill="#2403A6"/>
<path d="M125.716 128.667C125.281 129.078 125.241 129.734 125.653 130.169C126.044 130.583 126.711 130.591 127.146 130.179C127.593 129.758 127.611 129.101 127.22 128.688C126.809 128.253 126.163 128.245 125.716 128.667ZM121.598 120.691L117.712 124.363L118.432 125.125L119.956 123.685L123.834 127.788C124.225 128.201 124.689 128.299 125.159 127.772L126.308 126.48L125.588 125.719L124.559 126.876L120.794 122.893L122.318 121.453L121.598 120.691Z" fill="#2403A6"/>
<path d="M117.146 133.024C116.126 133.777 115.28 133.66 114.359 132.413L111.765 128.899L110.794 129.616L113.485 133.262C114.707 134.917 116.158 135.05 117.502 134.059C118.797 133.103 118.995 131.789 118.438 130.533L118.714 130.329L119.063 131.128L119.824 132.159L120.808 131.434L116.408 125.473L115.424 126.199L117.372 128.837C118.558 130.444 118.405 132.095 117.146 133.024Z" fill="#2403A6"/>
<path d="M105.704 140.937C106.296 140.621 106.511 140.421 106.962 139.622C107.812 139.726 108.733 139.488 109.522 139.066C111.402 138.061 112.425 136.433 111.463 134.632C110.38 132.607 108.174 132.907 106.358 134.57L106.197 134.268C107.041 133.411 107.918 132.554 108.815 131.703L108.191 131.073C106.834 132.423 104.326 134.659 103.553 133.213C103.005 132.187 104.297 131.379 108.045 129.376L107.553 128.456C103.174 130.795 101.505 131.974 102.433 133.71C103.206 135.156 104.791 134.58 106.183 133.515C104.597 135.292 103.963 136.763 104.715 138.169C105.017 138.735 105.441 139.117 105.9 139.311C105.749 139.629 105.554 139.834 105.186 140.031L104.634 140.326L105.126 141.246L105.704 140.937ZM107.141 134.642C108.508 133.912 109.689 133.906 110.37 135.182C111.045 136.444 110.384 137.422 109.017 138.153C107.636 138.89 106.482 138.882 105.807 137.62C105.126 136.344 105.76 135.38 107.141 134.642Z" fill="#2403A6"/>
<path d="M96.1106 139.015C95.9091 138.263 95.2188 136.961 93.1362 137.519C91.4008 137.984 90.9096 139.216 90.9294 140.388L90.5823 140.481L90.5687 139.679L90.4641 139.289C90.3206 138.754 89.9355 138.531 89.386 138.679L88.1133 139.02L88.3847 140.032L89.4404 139.749L90.2622 142.814C90.7778 144.737 92.3347 145.746 94.3449 145.207C96.3841 144.661 97.1555 143.028 96.7562 141.539L95.5992 141.849C95.9636 143.208 95.1187 143.93 94.0775 144.21C92.8337 144.543 91.9507 144.082 91.5256 142.786L94.3154 141.744C95.9465 141.12 96.4169 140.158 96.1106 139.015ZM94.9635 139.478C95.1535 140.186 94.7643 140.585 93.8765 140.916L91.2891 141.904C90.8899 140.414 91.6288 139.007 93.263 138.57C94.1018 138.345 94.7426 138.653 94.9635 139.478Z" fill="#2403A6"/>
<path d="M80.3011 147.536C80.9666 147.451 81.2383 147.342 81.9454 146.756C82.7025 147.156 83.6477 147.261 84.5351 147.148C86.6501 146.88 88.1864 145.723 87.929 143.697C87.6396 141.42 85.4713 140.914 83.1818 141.82L83.1386 141.48C84.2324 140.981 85.3576 140.492 86.4995 140.017L86.141 139.206C84.3913 139.984 81.2518 141.179 81.0451 139.552C80.8985 138.399 82.394 138.104 86.6092 137.568L86.4777 136.533C81.5525 137.159 79.573 137.666 79.821 139.618C80.0277 141.244 81.7143 141.271 83.3943 140.772C81.2791 141.867 80.1626 143.015 80.3636 144.598C80.4444 145.234 80.7043 145.741 81.0638 146.087C80.809 146.329 80.5541 146.452 80.14 146.504L79.5188 146.583L79.6503 147.618L80.3011 147.536ZM83.8871 142.167C85.4253 141.971 86.5302 142.387 86.7124 143.821C86.8928 145.241 85.927 145.92 84.3888 146.115C82.8358 146.312 81.7605 145.893 81.5802 144.473C81.3979 143.039 82.3341 142.364 83.8871 142.167Z" fill="#2403A6"/>
<path d="M77.5864 144.071C77.621 141.94 76.5325 140.103 73.879 140.06C71.5236 140.022 70.6033 141.602 70.3014 142.745L71.5238 142.765C71.8105 141.637 72.6401 141.054 73.8625 141.074C75.6961 141.103 76.3473 142.321 76.3991 143.724L70.5406 143.629L70.5328 144.106C70.4958 146.386 71.8457 147.735 73.9327 147.769C76.0347 147.803 77.5477 146.456 77.5864 144.071ZM76.3841 144.648C76.3648 145.84 75.4104 146.764 73.9494 146.74C72.4736 146.716 71.6988 145.764 71.7181 144.572L76.3841 144.648Z" fill="#2403A6"/>
<path d="M63.628 145.848C62.3751 145.658 61.8604 144.977 62.0933 143.444L62.7495 139.126L61.5556 138.945L60.8747 143.425C60.5656 145.459 61.4961 146.58 63.1469 146.831C64.7389 147.073 65.8086 146.285 66.305 145.004L66.644 145.055L66.3247 145.866L66.1321 147.133L67.3408 147.317L68.4539 139.993L67.2452 139.809L66.7525 143.051C66.4524 145.026 65.1757 146.084 63.628 145.848Z" fill="#2403A6"/>
<path d="M58.6138 142.073C59.2301 140.016 58.394 137.976 56.0946 137.288C54.7235 136.877 52.7358 137.122 51.9339 139.122L53.1193 139.477C53.7258 138.181 54.7667 137.979 55.795 138.287C57.4803 138.792 57.8835 140.251 57.4427 141.722C57.0062 143.178 55.867 144.175 54.1817 143.67C53.1534 143.362 52.3949 142.622 52.6015 141.205L51.4161 140.85C50.9855 142.962 52.5111 144.259 53.8822 144.67C56.1816 145.359 58.0019 144.115 58.6138 142.073Z" fill="#2403A6"/>
<path d="M43.1404 140.358L47.6074 136.029L47.8373 135.512L48.1644 135.657L47.9345 136.175L47.7189 142.391L48.9453 142.935L48.9649 134.919L49.7393 133.176L52.124 134.381L52.5474 133.427L49.9856 132.143C49.3572 131.832 48.9183 132.012 48.6884 132.53L47.8475 134.423L41.9276 139.82L43.1404 140.358Z" fill="#2403A6"/>
<path d="M34.8496 126.57L32.2454 124.294C30.326 122.616 28.6834 122.071 27.29 123.665C26.0536 125.079 26.5759 126.407 27.7686 127.489L27.5331 127.758C26.6646 127.098 25.4892 126.902 24.4883 128.047C23.1243 129.607 23.902 130.96 25.8326 132.647L27.9316 134.482L34.8496 126.57ZM29.9845 130.277L27.6981 132.892L26.4858 131.832C25.195 130.704 24.4667 129.929 25.5363 128.705C26.5176 127.583 27.4813 128.089 28.7722 129.217L29.9845 130.277ZM33.2423 126.551L30.6713 129.491L28.954 127.99C27.607 126.813 27.0623 125.782 28.073 124.626C29.1623 123.381 30.1779 123.873 31.5249 125.05L33.2423 126.551Z" fill="#2403A6"/>
<path d="M25.1558 122.826C26.7988 121.421 27.0827 119.138 25.5418 117.337C24.0106 115.547 21.7207 115.484 20.0777 116.889C18.4461 118.285 18.1525 120.556 19.6837 122.346C21.2246 124.147 23.5242 124.221 25.1558 122.826ZM24.3612 121.897C23.1941 122.895 21.6204 123.005 20.4769 121.668C19.343 120.342 19.6956 118.805 20.8627 117.807C22.0411 116.799 23.6148 116.689 24.7486 118.015C25.8922 119.352 25.5396 120.889 24.3612 121.897Z" fill="#2403A6"/>
<path d="M18.7726 115.145C20.5987 113.988 21.2045 111.769 19.9357 109.767C18.6749 107.777 16.4173 107.39 14.5911 108.547C12.7776 109.696 12.1639 111.902 13.4247 113.892C14.6935 115.894 16.9591 116.294 18.7726 115.145ZM18.1183 114.112C16.8211 114.934 15.2479 114.819 14.3063 113.333C13.3726 111.86 13.9404 110.389 15.2375 109.567C16.5473 108.737 18.1205 108.852 19.0541 110.325C19.9958 111.811 19.428 113.283 18.1183 114.112Z" fill="#2403A6"/>
<path d="M14.6325 99.973L14.0593 98.7108L11.6181 102.962L9.95653 101.719C9.58032 101.432 9.16205 101.376 8.73255 101.62L7.5465 102.289L8.05193 103.402L9.33426 102.657L12.7671 105.24L6.31879 108.167L6.82422 109.28L16.8021 104.751L16.2967 103.638L13.9346 104.71L12.5198 103.65L14.6325 99.973Z" fill="#2403A6"/>
<path d="M4.72491 97.7781C4.54122 97.2108 3.96874 96.8948 3.40136 97.0784C2.86236 97.2529 2.5696 97.8491 2.7533 98.4163C2.94158 98.9978 3.52366 99.2951 4.06266 99.1206C4.63003 98.9369 4.9132 98.3596 4.72491 97.7781ZM13.6574 97.4876L12.0179 92.4247L11.025 92.7461L11.668 94.7315L6.32048 96.4625C5.78148 96.637 5.49535 97.0117 5.76792 97.6598L6.43789 99.2448L7.43079 98.9234L6.83012 97.504L12.0216 95.8235L12.6645 97.809L13.6574 97.4876Z" fill="#2403A6"/>
<path d="M4.40492 88.1476C4.1655 86.9034 4.63565 86.1906 6.15828 85.8977L10.448 85.0725L10.2199 83.8869L5.76908 84.743C3.74866 85.1316 3.00264 86.3832 3.31811 88.0227C3.62231 89.6036 4.72213 90.3484 6.09613 90.3877L6.16091 90.7244L5.28977 90.6946L4.03067 90.9368L4.26164 92.1371L11.5381 90.7375L11.3071 89.5371L8.08615 90.1567C6.12429 90.5341 4.70068 89.6846 4.40492 88.1476Z" fill="#2403A6"/>
<path d="M2.19943 74.4543C2.23022 75.1244 2.31768 75.4039 2.84474 76.1557C2.38541 76.8781 2.20442 77.8116 2.24547 78.705C2.3433 80.8344 3.37311 82.4584 5.41351 82.3647C7.70711 82.2594 8.38579 80.1391 7.6657 77.7846L8.00825 77.7689C8.41837 78.8991 8.81497 80.0597 9.19735 81.2359L10.0347 80.9438C9.39945 79.1375 8.46027 75.9127 10.0986 75.8375C11.2602 75.7841 11.4343 77.2982 11.6293 81.542L12.6718 81.4942C12.444 76.5355 12.0978 74.522 10.1318 74.6123C8.49353 74.6875 8.33186 76.3663 8.69419 78.0806C7.77243 75.8846 6.7171 74.6796 5.1235 74.7528C4.48308 74.7822 3.95581 75.0004 3.58294 75.3309C3.36144 75.0575 3.25976 74.7936 3.24061 74.3767L3.21187 73.7513L2.16933 73.7991L2.19943 74.4543ZM7.26389 78.4596C7.33504 80.0083 6.83187 81.076 5.3872 81.1423C3.95743 81.208 3.35848 80.1909 3.28733 78.6423C3.2155 77.0787 3.72004 76.0409 5.14981 75.9752C6.59448 75.9088 7.19206 76.8961 7.26389 78.4596Z" fill="#2403A6"/>
<path d="M13.7718 61.9333C13.5898 61.9857 13.2805 61.9983 12.844 61.9712C13.4169 62.7719 13.617 63.6382 13.4441 64.5698C13.2896 65.4026 12.9284 66.0435 12.3604 66.4927C11.7882 66.9357 11.1403 67.0901 10.4167 66.9559C9.53692 66.7927 8.91679 66.3331 8.55628 65.5771C8.19153 64.815 8.12167 63.8275 8.34669 62.6148L8.60744 61.2096L7.94372 61.0865C7.43878 60.9928 7.00994 61.0694 6.6572 61.3162C6.29926 61.5621 6.06573 61.9791 5.9566 62.5672C5.86099 63.0825 5.91097 63.5386 6.10655 63.9356C6.30212 64.3326 6.58471 64.5654 6.95431 64.6339L6.68487 66.086C6.26321 66.0078 5.8847 65.7842 5.54932 65.4151C5.20971 65.0398 4.9727 64.5759 4.83829 64.0234C4.70486 63.4656 4.69511 62.8797 4.80907 62.2655C4.98967 61.2923 5.37581 60.5751 5.96751 60.1142C6.55401 59.6523 7.27605 59.4901 8.13363 59.6277L12.0222 60.349C12.7979 60.4928 13.4331 60.5084 13.9279 60.3955L14.0528 60.4187L13.7718 61.9333ZM12.2261 64.1258C12.3101 63.673 12.2726 63.2219 12.1137 62.7725C11.9548 62.3231 11.7048 61.9725 11.3638 61.7208L9.63035 61.3993L9.4203 62.5313C9.09194 64.3009 9.44573 65.2818 10.4816 65.4739C10.9345 65.5579 11.3165 65.4727 11.6276 65.2181C11.9387 64.9635 12.1382 64.5995 12.2261 64.1258Z" fill="#2403A6"/>
<path d="M10.242 57.3512C8.97689 56.9112 8.07353 56.2692 7.53196 55.4251C6.98539 54.5793 6.87996 53.6739 7.21566 52.709C7.56007 51.719 8.17885 51.0683 9.07201 50.7568L8.19539 50.3763L8.63633 49.1089L16.5572 51.8636C17.6073 52.2289 18.3262 52.8292 18.7139 53.6645C19.1032 54.4949 19.1153 55.4351 18.75 56.485C18.5465 57.07 18.2223 57.599 17.7775 58.072C17.3326 58.545 16.8414 58.8533 16.3037 58.997L15.7216 57.9875C16.6637 57.6482 17.2843 57.0486 17.5835 56.1886C17.8183 55.5137 17.8109 54.9226 17.5613 54.4155C17.3135 53.9033 16.8445 53.5272 16.1544 53.2872L15.4569 53.0446C15.9039 53.8222 15.9604 54.691 15.6264 55.6509C15.2959 56.6008 14.6455 57.2377 13.6752 57.5616C12.7066 57.8805 11.5622 57.8104 10.242 57.3512ZM10.8848 56.0111C11.8 56.3294 12.5853 56.3923 13.2408 56.1999C13.8913 56.0058 14.334 55.5713 14.5688 54.8964C14.8732 54.0214 14.6992 53.2407 14.0467 52.5542L10.3413 51.2655C9.41834 51.4209 8.80902 51.9236 8.51332 52.7736C8.2785 53.4485 8.35752 54.0673 8.75038 54.6299C9.14324 55.1924 9.85473 55.6529 10.8848 56.0111Z" fill="#2403A6"/>
<path d="M19.8509 45.7467C19.3034 46.7715 18.5225 47.4262 17.5082 47.7108C16.4893 47.9929 15.416 47.8329 14.2885 47.2308L14.0509 47.1039C13.3008 46.7034 12.7081 46.2043 12.2728 45.6067C11.8354 45.0019 11.5882 44.355 11.5311 43.6659C11.4718 42.9697 11.6027 42.3211 11.9237 41.7202C12.4488 40.7373 13.1807 40.1463 14.1194 39.9471C15.0582 39.7479 16.1309 39.9705 17.3376 40.6149L17.8758 40.9022L15.1398 46.024C15.8952 46.4034 16.6143 46.509 17.297 46.3407C17.9775 46.1653 18.4895 45.7562 18.8329 45.1133C19.0768 44.6568 19.1901 44.2204 19.173 43.8041C19.1558 43.3879 19.0569 42.9788 18.8763 42.5771L19.9131 42.1159C20.5485 43.2694 20.5277 44.4797 19.8509 45.7467ZM12.986 42.2875C12.7073 42.8092 12.6644 43.3491 12.8573 43.9071C13.0456 44.4627 13.4598 44.9652 14.0999 45.4148L16.123 41.6276L16.0251 41.5754C15.3483 41.2619 14.7459 41.1677 14.2179 41.2929C13.6853 41.4156 13.2747 41.7471 12.986 42.2875Z" fill="#2403A6"/>
<path d="M16.5039 34.4063L17.3966 35.0161C17.1297 33.9955 17.314 33.0617 17.9493 32.2147C19.0389 30.7622 20.408 30.6442 22.0567 31.8606L26.5994 35.267L25.7179 36.4421L21.1689 33.031C20.6701 32.6636 20.218 32.5032 19.8124 32.5498C19.41 32.5922 19.0325 32.8484 18.6799 33.3184C18.394 33.6996 18.2447 34.1103 18.232 34.5508C18.2193 34.9912 18.3178 35.4157 18.5275 35.8244L23.4259 39.4975L22.5444 40.6727L15.67 35.5179L16.5039 34.4063Z" fill="#2403A6"/>
<path d="M30.1333 29.9207C30.5064 29.5526 30.7208 29.1179 30.7765 28.6167C30.8323 28.1155 30.7079 27.6805 30.4033 27.3116L31.3925 26.3356C31.7195 26.7046 31.9281 27.157 32.0181 27.6929C32.1082 28.2288 32.0596 28.7749 31.8725 29.3314C31.6891 29.8842 31.3901 30.3651 30.9756 30.7741C30.1428 31.5958 29.2062 31.9733 28.1658 31.9065C27.1255 31.8322 26.1294 31.3128 25.1774 30.3482L25.0044 30.173C24.4169 29.5777 24.0037 28.9405 23.7648 28.2614C23.526 27.5823 23.4836 26.9139 23.6377 26.2561C23.7956 25.5946 24.1534 24.9887 24.7112 24.4384C25.397 23.7617 26.1687 23.4056 27.0263 23.3701C27.8877 23.3309 28.6569 23.6243 29.3342 24.2501L28.3449 25.2261C27.9243 24.8603 27.4537 24.685 26.9333 24.7002C26.4128 24.708 25.9547 24.9071 25.559 25.2975C25.0277 25.8218 24.8047 26.4211 24.8901 27.0954C24.9755 27.7622 25.3752 28.4574 26.0892 29.1808L26.2845 29.3786C26.9799 30.0832 27.6605 30.4826 28.3263 30.5769C28.9921 30.6711 29.5944 30.4524 30.1333 29.9207Z" fill="#2403A6"/>
<path d="M35.5506 23.6932L33.296 17.3378L34.5553 16.3963L37.7291 26.407C38.157 27.8718 37.9045 28.9529 36.9717 29.6503L36.7349 29.7977L36.2342 30.0431L35.5208 29.0893L35.8578 28.877C36.2564 28.579 36.5056 28.267 36.6056 27.9411C36.7099 27.612 36.6739 27.1794 36.4979 26.6435L36.2354 25.7491L28.6914 20.7806L29.9761 19.8201L35.5506 23.6932Z" fill="#2403A6"/>
</g>
<defs>
<clipPath id="clip0">
<rect width="150" height="150" fill="white"/>
</clipPath>
</defs>
</svg>
