<svg width="160" height="47" viewBox="0 0 160 47" fill="none" xmlns="http://www.w3.org/2000/svg">
<path d="M8.59969 1V0H8.15358L7.85556 0.331964L8.59969 1ZM1 9.46535L0.255871 8.79731L0 9.08233V9.46535H1ZM1 36.6436H0V36.9985L0.223788 37.274L1 36.6436ZM8.59969 46L7.82348 46.6305L8.12363 47H8.59969V46ZM151.4 46V47H151.876L152.176 46.6305L151.4 46ZM159 36.6436L159.776 37.274L160 36.9985V36.6436H159ZM159 9.46535H160V9.08233L159.744 8.79731L159 9.46535ZM151.4 1L152.144 0.331964L151.846 0H151.4V1ZM8.59969 2H29.0812V0H8.59969V2ZM1.74413 10.1334L9.34382 1.66804L7.85556 0.331964L0.255871 8.79731L1.74413 10.1334ZM2 36.6436V9.46535H0V36.6436H2ZM9.37591 45.3695L1.77621 36.0131L0.223788 37.274L7.82348 46.6305L9.37591 45.3695ZM29.0812 45H8.59969V47H29.0812V45ZM29.0812 47H130.919V45H29.0812V47ZM130.919 47H151.4V45H130.919V47ZM152.176 46.6305L159.776 37.274L158.224 36.0131L150.624 45.3695L152.176 46.6305ZM160 36.6436V9.46535H158V36.6436H160ZM159.744 8.79731L152.144 0.331964L150.656 1.66804L158.256 10.1334L159.744 8.79731ZM151.4 0H130.919V2H151.4V0ZM130.919 0H29.0812V2H130.919V0Z" fill="#2403A6"/>
</svg>
