<svg width="238" height="57" viewBox="0 0 238 57" fill="none" xmlns="http://www.w3.org/2000/svg">
<path d="M12.3317 1V0H11.9464L11.6608 0.258464L12.3317 1ZM1 11.2525L0.329087 10.5109L0 10.8087V11.2525H1ZM1 44.1683H0V44.5825L0.292893 44.8754L1 44.1683ZM12.3317 55.5L11.6246 56.2071L11.9175 56.5H12.3317V55.5ZM225.258 55.5V56.5H225.672L225.965 56.2071L225.258 55.5ZM236.589 44.1683L237.296 44.8754L237.589 44.5825V44.1683H236.589ZM236.589 11.2525H237.589V10.8087L237.26 10.5109L236.589 11.2525ZM225.258 1L225.928 0.258464L225.643 0H225.258V1ZM12.3317 2H42.8714V0H12.3317V2ZM1.67091 11.994L13.0026 1.74154L11.6608 0.258464L0.329087 10.5109L1.67091 11.994ZM2 44.1683V11.2525H0V44.1683H2ZM13.0388 54.7929L1.70711 43.4612L0.292893 44.8754L11.6246 56.2071L13.0388 54.7929ZM42.8714 54.5H12.3317V56.5H42.8714V54.5ZM42.8714 56.5H194.718V54.5H42.8714V56.5ZM194.718 56.5H225.258V54.5H194.718V56.5ZM225.965 56.2071L237.296 44.8754L235.882 43.4612L224.55 54.7929L225.965 56.2071ZM237.589 44.1683V11.2525H235.589V44.1683H237.589ZM237.26 10.5109L225.928 0.258464L224.587 1.74154L235.918 11.994L237.26 10.5109ZM225.258 0H194.718V2H225.258V0ZM194.718 0H42.8714V2H194.718V0Z" fill="#2403A6"/>
</svg>
