<svg width="37" height="34" viewBox="0 0 37 34" fill="none" xmlns="http://www.w3.org/2000/svg">
<path fill-rule="evenodd" clip-rule="evenodd" d="M12.3282 0H5.33902L0 6.39604V26.9307L5.33902 34H12.3282H24.6718H31.661L37 26.9307V6.39604L31.661 0H24.6718H12.3282Z" fill="#F9F9F9"/>
<path fill-rule="evenodd" clip-rule="evenodd" d="M23.2699 17.5499L27.3198 13.5004C28.2266 12.594 28.2266 11.1185 27.3206 10.2124L25.7896 8.68105C25.35 8.24196 24.7661 8 24.145 8C23.5239 8 22.9398 8.24196 22.5003 8.68138L18.45 12.7308C17.5438 13.6375 17.5438 15.1128 18.4506 16.0191L18.6087 16.1772L18.1775 16.6083L18.0194 16.4502C17.5798 16.0111 16.9961 15.7692 16.3747 15.7692C15.7533 15.7692 15.1693 16.011 14.7301 16.4502L10.6798 20.4995C9.77335 21.4065 9.77335 22.8816 10.6801 23.7877L12.2108 25.3186C12.6502 25.758 13.2343 26 13.8556 26C14.477 26 15.061 25.7582 15.5003 25.3189L19.5497 21.2695C20.4565 20.3628 20.4565 18.8876 19.5497 17.9809L19.3914 17.8226L19.8226 17.3915L19.9812 17.5501C20.4205 17.989 21.0046 18.2309 21.6255 18.2309C22.2466 18.2309 22.8306 17.9891 23.2699 17.5499ZM17.3931 19.8192L18.1762 19.0362L18.3345 19.1945C18.5716 19.4316 18.5716 19.8173 18.3345 20.0543L14.2851 24.1037C14.0557 24.333 13.6555 24.3333 13.4256 24.1034L11.8944 22.5721C11.6576 22.3353 11.6576 21.95 11.8944 21.713L15.9443 17.6641C16.0591 17.5495 16.2117 17.4862 16.3741 17.4862C16.5361 17.4862 16.6887 17.5496 16.8035 17.6641L16.9616 17.8221L16.1786 18.6051L17.3931 19.8192ZM24.5761 9.89582C24.4613 9.78102 24.3084 9.71778 24.146 9.71778C23.9836 9.71778 23.8307 9.78103 23.7159 9.89615L19.6659 13.9454C19.4295 14.1824 19.4295 14.5677 19.6663 14.8048L19.8246 14.9629L21.0257 13.7616L22.2402 14.976L21.0391 16.1773L21.1974 16.3356C21.4274 16.5648 21.827 16.5652 22.057 16.3352L26.1067 12.2864C26.3435 12.0494 26.3435 11.664 26.1067 11.4269L24.5761 9.89582Z" fill="#2403A6"/>
</svg>
