<svg width="21" height="21" viewBox="0 0 21 21" fill="none" xmlns="http://www.w3.org/2000/svg">
<path d="M10.6321 0C13.3799 0 15.7245 0.910964 17.6659 2.73289C19.6073 4.52495 20.578 6.70529 20.578 9.27391C20.578 11.3049 19.9508 13.1268 18.6964 14.7397C17.4718 16.3227 15.8589 17.4427 13.8578 18.0998C11.8865 18.727 9.85554 18.7569 7.7648 18.1894L4.40469 20.0711V16.5317C3.38919 15.7552 2.56783 14.8741 1.94061 13.8885C1.34326 12.873 0.96991 11.8575 0.820572 10.842C0.671233 9.79659 0.686167 8.75122 0.865373 7.70586C1.04458 6.66049 1.41792 5.68979 1.98541 4.79376C2.5529 3.86786 3.23985 3.0465 4.04628 2.32968C4.85271 1.61285 5.8234 1.04537 6.95838 0.627221C8.12321 0.209074 9.34779 0 10.6321 0ZM11.6625 12.4548L17.0835 6.72022L12.1553 9.45311L9.60166 6.76503L4.18068 12.5444L9.10885 9.76673L11.6625 12.4548Z" fill="black"/>
</svg>
