<svg width="93" height="39" viewBox="0 0 93 39" fill="none" xmlns="http://www.w3.org/2000/svg">
<path d="M16.2165 0L15.6596 3.51H9.54503L7.41772 17.572H15.6596L12.6914 39H0L0.840898 35.1989H8.98814L11.2101 21.1369H2.60066L5.93641 0H16.2165Z" fill="white"/>
<path d="M19.1744 0L18.623 3.41662H22.6048L16.8633 39H21.7694L27.3272 3.32324H31.0305L31.7711 0H19.1744Z" fill="white"/>
<path d="M35.2851 0L28.6191 39H33.3415L36.0257 21.1369H38.2477V39H42.597L42.6917 20.9501H44.819L47.8818 0H35.2851ZM41.3997 17.4841H36.9557L38.8102 3.60338H42.9757L41.3997 17.4841Z" fill="white"/>
<path d="M50.9322 0H62.2314L61.7358 3.59789H55.2536L53.6498 17.4841H58.3443L57.4756 21.439H52.7866L50.8097 35.1385H56.5233L56.0555 39H45.252L50.9322 0Z" fill="white"/>
<path d="M65.9964 0H70.6241L65.0107 35.1989H70.9972L70.3791 39H59.6367L65.9964 0Z" fill="white"/>
<path d="M80.0686 0L73.709 39H78.7098L81.2381 21.3786L85.0639 21.3182L82.5412 39H87.2302L92.9995 0H80.0686ZM86.122 17.4841H82.1124L83.7775 3.60338H88.0377L86.122 17.4841Z" fill="white"/>
</svg>
