<svg width="93" height="39" viewBox="0 0 93 39" fill="none" xmlns="http://www.w3.org/2000/svg">
<g clip-path="url(#clip0)">
<path fill-rule="evenodd" clip-rule="evenodd" d="M15.6596 3.51L16.2165 0H5.93641L2.60066 21.1369H11.2101L8.98814 35.1989H0.840898L0 39H12.6914L15.6596 17.572H7.41772L9.54503 3.51H15.6596ZM18.6223 3.41662L19.1736 0H31.7704L31.0297 3.32324H27.3264L21.7687 39H16.8625L22.604 3.41662H18.6223ZM35.2843 0L28.6184 39H33.3408L36.025 21.1369H38.247V39H42.5963L42.6909 20.9501H44.8182L47.8811 0H35.2843ZM41.3989 17.4841H36.955L38.8094 3.60338H42.9749L41.3989 17.4841ZM62.232 0H50.9328L45.2526 39H56.0562L56.5239 35.1385H50.8103L52.7872 21.439H57.4762L58.345 17.4841H53.6504L55.2542 3.59789H61.7364L62.232 0ZM65.9966 0H70.6244L65.0109 35.1989H70.9975L70.3793 39H59.637L65.9966 0ZM73.7095 39L80.0691 0H93L87.2307 39H82.5417L85.0644 21.3182L81.2386 21.3786L78.7103 39H73.7095ZM82.1129 17.4841H86.1225L88.0382 3.60338H83.778L82.1129 17.4841Z" fill="url(#paint0_linear)"/>
</g>
<defs>
<linearGradient id="paint0_linear" x1="94.5" y1="-3.50001" x2="80.5521" y2="-16.6794" gradientUnits="userSpaceOnUse">
<stop stop-opacity="0.48"/>
<stop offset="1"/>
</linearGradient>
<clipPath id="clip0">
<rect width="93" height="39" fill="white"/>
</clipPath>
</defs>
</svg>
