<?xml version="1.0" encoding="utf-8"?>
<!-- Generator: Adobe Illustrator 26.2.1, SVG Export Plug-In . SVG Version: 6.00 Build 0)  -->
<svg version="1.1" id="Layer_1" xmlns="http://www.w3.org/2000/svg" xmlns:xlink="http://www.w3.org/1999/xlink" x="0px" y="0px"
	 viewBox="0 0 1349 566" style="enable-background:new 0 0 1349 566;" xml:space="preserve">
<style type="text/css">
	.st0{fill-rule:evenodd;clip-rule:evenodd;}
</style>
<path class="st0" d="M905.8,0h67.1l-81.4,510.1h86.8l-9,55.1H813.6L905.8,0z M1017.6,565.2L1109.9,0h187.5l-83.6,565.2h-68
	l36.6-256.3l-55.5,0.9l-36.7,255.4H1017.6z M1139.5,253.4h58.1l27.8-201.2h-61.8L1139.5,253.4z"/>
<path class="st0" d="M227.1,50.9L235.1,0H86.1L37.7,306.3h124.8l-32.2,203.8H12.2L0,565.2h184l43-310.5H107.6l30.8-203.8H227.1z
	 M270,49.5L278,0h182.6l-10.7,48.2h-53.7l-80.6,517.1h-71.1l83.2-515.7H270z M511.6,0L415,565.2h68.5l38.9-258.9h32.2v258.9h63.1
	l1.4-261.6h30.8L694.3,0H511.6z M600.3,253.4h-64.4l26.9-201.2h60.4L600.3,253.4z"/>
<path class="st0" d="M766.7,0h67.1l-81.4,510.1l-11.1,55.1h-66.8L766.7,0z"/>
</svg>
