<svg width="21" height="17" viewBox="0 0 21 17" fill="none" xmlns="http://www.w3.org/2000/svg">
<path d="M20.6641 1.54102L17.6517 15.6286C17.4154 16.6327 16.8691 16.8985 16.0126 16.426L11.4496 13.0591L9.23462 15.1856C8.93928 15.4809 8.62918 15.6286 8.30431 15.6286L8.65871 10.977L17.1201 3.35734C17.3268 3.1506 17.3268 3.03247 17.1201 3.00294C16.9429 2.94387 16.7509 2.98817 16.5442 3.13584L6.08929 9.7366L1.57064 8.31899C1.06857 8.17132 0.832303 7.94982 0.861836 7.65448C0.89137 7.35915 1.20147 7.10811 1.79215 6.90137L19.3794 0.0791079C19.8224 -0.0685602 20.1768 -0.00949295 20.4426 0.25631C20.7084 0.492579 20.7823 0.920816 20.6641 1.54102Z" fill="black"/>
</svg>
